<svg xmlns="http://www.w3.org/2000/svg" version="1.1" xmlns:xlink="http://www.w3.org/1999/xlink" xmlns:svgjs="http://svgjs.com/svgjs" width="1440" height="560" preserveAspectRatio="none" viewBox="0 0 1440 560"><g mask="url(&quot;#SvgjsMask1002&quot;)" fill="none"><rect width="1440" height="560" x="0" y="0" fill="rgba(69, 107, 167, 1)"></rect><path d="M0,434.101C91.056,446.096,201.698,481.324,269.548,419.425C339.597,355.519,299.688,238.022,317.098,144.814C329.612,77.816,359.451,16.729,357.492,-51.4C355.346,-126.034,348.773,-203.843,305.327,-264.567C260.078,-327.811,190.28,-372.314,114.724,-390.715C40.88,-408.699,-33.448,-383.457,-107.183,-365.031C-184.027,-345.828,-268.73,-337.449,-324.298,-281.005C-381.04,-223.368,-398.264,-138.967,-408.696,-58.762C-419.021,20.623,-415.818,101.9,-383.632,175.199C-351.164,249.139,-294.408,308.775,-227.47,353.949C-159.456,399.85,-81.351,423.384,0,434.101" fill="#375686"></path><path d="M1440 1015.371C1524.959 999.365 1603.151 972.531 1681.1390000000001 935.219 1769.9769999999999 892.716 1892.75 874.7370000000001 1926.966 782.39 1961.5839999999998 688.96 1854.345 601.078 1841.556 502.265 1828.48 401.235 1906.658 288.973 1851.98 203.017 1797.8319999999999 117.894 1676.1109999999999 113.77199999999999 1578.417 88.596 1483.835 64.22199999999998 1383.886 23.48599999999999 1292.873 58.93099999999998 1203.364 93.79000000000002 1154.589 188.19099999999997 1107.586 271.962 1067.676 343.091 1066.251 424.639 1043.6979999999999 503.02 1016.675 596.933 945.905 681.943 961.877 778.352 979.179 882.788 1037.5819999999999 991.5740000000001 1132.4279999999999 1038.592 1226.45 1085.201 1336.873 1034.799 1440 1015.371" fill="#5f83bd"></path></g><defs><mask id="SvgjsMask1002"><rect width="1440" height="560" fill="#ffffff"></rect></mask></defs></svg>